<svg width="1774" height="544" viewBox="0 0 1774 544" fill="none" xmlns="http://www.w3.org/2000/svg" xmlns:xlink="http://www.w3.org/1999/xlink">
<g filter="url(#filter0_d_76_13)">
<path d="M4 0H522V536H4V0Z" fill="url(#pattern0_76_13)" shape-rendering="crispEdges"></path>
</g>
<path d="M633.72 180.44C655.56 180.44 672.633 186.94 684.94 199.94C697.42 212.94 703.66 231.487 703.66 255.58V364H684.42V256.1C684.42 236.86 679.653 222.3 670.12 212.42C660.587 202.54 647.24 197.6 630.08 197.6C612.053 197.6 598.013 202.887 587.96 213.46C577.907 223.86 572.88 239.547 572.88 260.52V364H553.64V182H572.1V212.68C583.713 191.187 604.253 180.44 633.72 180.44ZM813.335 365.3C800.162 365.3 788.289 362.353 777.715 356.46C767.142 350.393 758.822 342.073 752.755 331.5C746.689 320.927 743.655 308.967 743.655 295.62C743.655 282.273 746.689 270.313 752.755 259.74C758.822 249.167 767.142 240.933 777.715 235.04C788.289 229.147 800.162 226.2 813.335 226.2C826.509 226.2 838.382 229.147 848.955 235.04C859.529 240.933 867.762 249.167 873.655 259.74C879.722 270.313 882.755 282.273 882.755 295.62C882.755 308.967 879.722 320.927 873.655 331.5C867.762 342.073 859.529 350.393 848.955 356.46C838.382 362.353 826.509 365.3 813.335 365.3ZM813.335 348.92C823.042 348.92 831.709 346.753 839.335 342.42C847.135 337.913 853.202 331.587 857.535 323.44C861.869 315.293 864.035 306.02 864.035 295.62C864.035 285.22 861.869 275.947 857.535 267.8C853.202 259.653 847.135 253.413 839.335 249.08C831.709 244.573 823.042 242.32 813.335 242.32C803.629 242.32 794.875 244.573 787.075 249.08C779.449 253.413 773.382 259.653 768.875 267.8C764.542 275.947 762.375 285.22 762.375 295.62C762.375 306.02 764.542 315.293 768.875 323.44C773.382 331.587 779.449 337.913 787.075 342.42C794.875 346.753 803.629 348.92 813.335 348.92ZM938.123 254.02C942.456 244.833 948.87 237.9 957.363 233.22C966.03 228.54 976.69 226.2 989.343 226.2V244.14L984.923 243.88C970.536 243.88 959.27 248.3 951.123 257.14C942.976 265.98 938.903 278.373 938.903 294.32V364H920.443V227.24H938.123V254.02ZM1146.3 171.08V364H1128.62V336.96C1123.07 346.147 1115.7 353.167 1106.52 358.02C1097.5 362.873 1087.28 365.3 1075.84 365.3C1063.01 365.3 1051.4 362.353 1041 356.46C1030.6 350.567 1022.45 342.333 1016.56 331.76C1010.66 321.187 1007.72 309.14 1007.72 295.62C1007.72 282.1 1010.66 270.053 1016.56 259.48C1022.45 248.907 1030.6 240.76 1041 235.04C1051.4 229.147 1063.01 226.2 1075.84 226.2C1086.93 226.2 1096.9 228.54 1105.74 233.22C1114.75 237.727 1122.12 244.4 1127.84 253.24V171.08H1146.3ZM1077.4 348.92C1086.93 348.92 1095.51 346.753 1103.14 342.42C1110.94 337.913 1117 331.587 1121.34 323.44C1125.84 315.293 1128.1 306.02 1128.1 295.62C1128.1 285.22 1125.84 275.947 1121.34 267.8C1117 259.653 1110.94 253.413 1103.14 249.08C1095.51 244.573 1086.93 242.32 1077.4 242.32C1067.69 242.32 1058.94 244.573 1051.14 249.08C1043.51 253.413 1037.44 259.653 1032.94 267.8C1028.6 275.947 1026.44 285.22 1026.44 295.62C1026.44 306.02 1028.6 315.293 1032.94 323.44C1037.44 331.587 1043.51 337.913 1051.14 342.42C1058.94 346.753 1067.69 348.92 1077.4 348.92ZM1272.33 197.6C1254.48 197.6 1241.13 201.673 1232.29 209.82C1223.62 217.793 1219.29 229.407 1219.29 244.66V270.14H1306.13V286.78H1219.29V364H1200.05V244.4C1200.05 224.467 1206.29 208.867 1218.77 197.6C1231.25 186.16 1248.84 180.44 1271.55 180.44C1293.56 180.44 1311.24 185.207 1324.59 194.74L1317.57 210.6C1305.78 201.933 1290.7 197.6 1272.33 197.6ZM1392.6 365.3C1380.29 365.3 1370.76 361.833 1364 354.9C1357.41 347.967 1354.12 338.347 1354.12 326.04V171.08H1372.58V324.48C1372.58 332.627 1374.48 338.867 1378.3 343.2C1382.11 347.36 1387.83 349.44 1395.46 349.44C1400.31 349.44 1404.47 348.66 1407.94 347.1L1409.24 362.44C1403.86 364.347 1398.32 365.3 1392.6 365.3ZM1557.59 227.24V364H1539.91V339.04C1535.06 347.36 1528.38 353.86 1519.89 358.54C1511.4 363.047 1501.69 365.3 1490.77 365.3C1472.92 365.3 1458.79 360.36 1448.39 350.48C1438.16 340.427 1433.05 325.78 1433.05 306.54V227.24H1451.51V304.72C1451.51 319.107 1455.06 330.027 1462.17 337.48C1469.28 344.933 1479.42 348.66 1492.59 348.66C1506.98 348.66 1518.33 344.327 1526.65 335.66C1534.97 326.82 1539.13 314.6 1539.13 299V227.24H1557.59ZM1696.39 364L1652.97 306.8L1609.29 364H1588.49L1642.57 293.8L1591.09 227.24H1611.89L1652.97 280.8L1694.05 227.24H1714.33L1662.85 293.8L1717.45 364H1696.39Z" fill="#8B4430"></path>
<path d="M632.72 179.44C654.56 179.44 671.633 185.94 683.94 198.94C696.42 211.94 702.66 230.487 702.66 254.58V363H683.42V255.1C683.42 235.86 678.653 221.3 669.12 211.42C659.587 201.54 646.24 196.6 629.08 196.6C611.053 196.6 597.013 201.887 586.96 212.46C576.907 222.86 571.88 238.547 571.88 259.52V363H552.64V181H571.1V211.68C582.713 190.187 603.253 179.44 632.72 179.44ZM812.335 364.3C799.162 364.3 787.289 361.353 776.715 355.46C766.142 349.393 757.822 341.073 751.755 330.5C745.689 319.927 742.655 307.967 742.655 294.62C742.655 281.273 745.689 269.313 751.755 258.74C757.822 248.167 766.142 239.933 776.715 234.04C787.289 228.147 799.162 225.2 812.335 225.2C825.509 225.2 837.382 228.147 847.955 234.04C858.529 239.933 866.762 248.167 872.655 258.74C878.722 269.313 881.755 281.273 881.755 294.62C881.755 307.967 878.722 319.927 872.655 330.5C866.762 341.073 858.529 349.393 847.955 355.46C837.382 361.353 825.509 364.3 812.335 364.3ZM812.335 347.92C822.042 347.92 830.709 345.753 838.335 341.42C846.135 336.913 852.202 330.587 856.535 322.44C860.869 314.293 863.035 305.02 863.035 294.62C863.035 284.22 860.869 274.947 856.535 266.8C852.202 258.653 846.135 252.413 838.335 248.08C830.709 243.573 822.042 241.32 812.335 241.32C802.629 241.32 793.875 243.573 786.075 248.08C778.449 252.413 772.382 258.653 767.875 266.8C763.542 274.947 761.375 284.22 761.375 294.62C761.375 305.02 763.542 314.293 767.875 322.44C772.382 330.587 778.449 336.913 786.075 341.42C793.875 345.753 802.629 347.92 812.335 347.92ZM937.123 253.02C941.456 243.833 947.87 236.9 956.363 232.22C965.03 227.54 975.69 225.2 988.343 225.2V243.14L983.923 242.88C969.536 242.88 958.27 247.3 950.123 256.14C941.976 264.98 937.903 277.373 937.903 293.32V363H919.443V226.24H937.123V253.02ZM1145.3 170.08V363H1127.62V335.96C1122.07 345.147 1114.7 352.167 1105.52 357.02C1096.5 361.873 1086.28 364.3 1074.84 364.3C1062.01 364.3 1050.4 361.353 1040 355.46C1029.6 349.567 1021.45 341.333 1015.56 330.76C1009.66 320.187 1006.72 308.14 1006.72 294.62C1006.72 281.1 1009.66 269.053 1015.56 258.48C1021.45 247.907 1029.6 239.76 1040 234.04C1050.4 228.147 1062.01 225.2 1074.84 225.2C1085.93 225.2 1095.9 227.54 1104.74 232.22C1113.75 236.727 1121.12 243.4 1126.84 252.24V170.08H1145.3ZM1076.4 347.92C1085.93 347.92 1094.51 345.753 1102.14 341.42C1109.94 336.913 1116 330.587 1120.34 322.44C1124.84 314.293 1127.1 305.02 1127.1 294.62C1127.1 284.22 1124.84 274.947 1120.34 266.8C1116 258.653 1109.94 252.413 1102.14 248.08C1094.51 243.573 1085.93 241.32 1076.4 241.32C1066.69 241.32 1057.94 243.573 1050.14 248.08C1042.51 252.413 1036.44 258.653 1031.94 266.8C1027.6 274.947 1025.44 284.22 1025.44 294.62C1025.44 305.02 1027.6 314.293 1031.94 322.44C1036.44 330.587 1042.51 336.913 1050.14 341.42C1057.94 345.753 1066.69 347.92 1076.4 347.92ZM1271.33 196.6C1253.48 196.6 1240.13 200.673 1231.29 208.82C1222.62 216.793 1218.29 228.407 1218.29 243.66V269.14H1305.13V285.78H1218.29V363H1199.05V243.4C1199.05 223.467 1205.29 207.867 1217.77 196.6C1230.25 185.16 1247.84 179.44 1270.55 179.44C1292.56 179.44 1310.24 184.207 1323.59 193.74L1316.57 209.6C1304.78 200.933 1289.7 196.6 1271.33 196.6ZM1391.6 364.3C1379.29 364.3 1369.76 360.833 1363 353.9C1356.41 346.967 1353.12 337.347 1353.12 325.04V170.08H1371.58V323.48C1371.58 331.627 1373.48 337.867 1377.3 342.2C1381.11 346.36 1386.83 348.44 1394.46 348.44C1399.31 348.44 1403.47 347.66 1406.94 346.1L1408.24 361.44C1402.86 363.347 1397.32 364.3 1391.6 364.3ZM1556.59 226.24V363H1538.91V338.04C1534.06 346.36 1527.38 352.86 1518.89 357.54C1510.4 362.047 1500.69 364.3 1489.77 364.3C1471.92 364.3 1457.79 359.36 1447.39 349.48C1437.16 339.427 1432.05 324.78 1432.05 305.54V226.24H1450.51V303.72C1450.51 318.107 1454.06 329.027 1461.17 336.48C1468.28 343.933 1478.42 347.66 1491.59 347.66C1505.98 347.66 1517.33 343.327 1525.65 334.66C1533.97 325.82 1538.13 313.6 1538.13 298V226.24H1556.59ZM1695.39 363L1651.97 305.8L1608.29 363H1587.49L1641.57 292.8L1590.09 226.24H1610.89L1651.97 279.8L1693.05 226.24H1713.33L1661.85 292.8L1716.45 363H1695.39Z" fill="#8B4430"></path>
<path d="M631.72 178.44C653.56 178.44 670.633 184.94 682.94 197.94C695.42 210.94 701.66 229.487 701.66 253.58V362H682.42V254.1C682.42 234.86 677.653 220.3 668.12 210.42C658.587 200.54 645.24 195.6 628.08 195.6C610.053 195.6 596.013 200.887 585.96 211.46C575.907 221.86 570.88 237.547 570.88 258.52V362H551.64V180H570.1V210.68C581.713 189.187 602.253 178.44 631.72 178.44ZM811.335 363.3C798.162 363.3 786.289 360.353 775.715 354.46C765.142 348.393 756.822 340.073 750.755 329.5C744.689 318.927 741.655 306.967 741.655 293.62C741.655 280.273 744.689 268.313 750.755 257.74C756.822 247.167 765.142 238.933 775.715 233.04C786.289 227.147 798.162 224.2 811.335 224.2C824.509 224.2 836.382 227.147 846.955 233.04C857.529 238.933 865.762 247.167 871.655 257.74C877.722 268.313 880.755 280.273 880.755 293.62C880.755 306.967 877.722 318.927 871.655 329.5C865.762 340.073 857.529 348.393 846.955 354.46C836.382 360.353 824.509 363.3 811.335 363.3ZM811.335 346.92C821.042 346.92 829.709 344.753 837.335 340.42C845.135 335.913 851.202 329.587 855.535 321.44C859.869 313.293 862.035 304.02 862.035 293.62C862.035 283.22 859.869 273.947 855.535 265.8C851.202 257.653 845.135 251.413 837.335 247.08C829.709 242.573 821.042 240.32 811.335 240.32C801.629 240.32 792.875 242.573 785.075 247.08C777.449 251.413 771.382 257.653 766.875 265.8C762.542 273.947 760.375 283.22 760.375 293.62C760.375 304.02 762.542 313.293 766.875 321.44C771.382 329.587 777.449 335.913 785.075 340.42C792.875 344.753 801.629 346.92 811.335 346.92ZM936.123 252.02C940.456 242.833 946.87 235.9 955.363 231.22C964.03 226.54 974.69 224.2 987.343 224.2V242.14L982.923 241.88C968.536 241.88 957.27 246.3 949.123 255.14C940.976 263.98 936.903 276.373 936.903 292.32V362H918.443V225.24H936.123V252.02ZM1144.3 169.08V362H1126.62V334.96C1121.07 344.147 1113.7 351.167 1104.52 356.02C1095.5 360.873 1085.28 363.3 1073.84 363.3C1061.01 363.3 1049.4 360.353 1039 354.46C1028.6 348.567 1020.45 340.333 1014.56 329.76C1008.66 319.187 1005.72 307.14 1005.72 293.62C1005.72 280.1 1008.66 268.053 1014.56 257.48C1020.45 246.907 1028.6 238.76 1039 233.04C1049.4 227.147 1061.01 224.2 1073.84 224.2C1084.93 224.2 1094.9 226.54 1103.74 231.22C1112.75 235.727 1120.12 242.4 1125.84 251.24V169.08H1144.3ZM1075.4 346.92C1084.93 346.92 1093.51 344.753 1101.14 340.42C1108.94 335.913 1115 329.587 1119.34 321.44C1123.84 313.293 1126.1 304.02 1126.1 293.62C1126.1 283.22 1123.84 273.947 1119.34 265.8C1115 257.653 1108.94 251.413 1101.14 247.08C1093.51 242.573 1084.93 240.32 1075.4 240.32C1065.69 240.32 1056.94 242.573 1049.14 247.08C1041.51 251.413 1035.44 257.653 1030.94 265.8C1026.6 273.947 1024.44 283.22 1024.44 293.62C1024.44 304.02 1026.6 313.293 1030.94 321.44C1035.44 329.587 1041.51 335.913 1049.14 340.42C1056.94 344.753 1065.69 346.92 1075.4 346.92ZM1270.33 195.6C1252.48 195.6 1239.13 199.673 1230.29 207.82C1221.62 215.793 1217.29 227.407 1217.29 242.66V268.14H1304.13V284.78H1217.29V362H1198.05V242.4C1198.05 222.467 1204.29 206.867 1216.77 195.6C1229.25 184.16 1246.84 178.44 1269.55 178.44C1291.56 178.44 1309.24 183.207 1322.59 192.74L1315.57 208.6C1303.78 199.933 1288.7 195.6 1270.33 195.6ZM1390.6 363.3C1378.29 363.3 1368.76 359.833 1362 352.9C1355.41 345.967 1352.12 336.347 1352.12 324.04V169.08H1370.58V322.48C1370.58 330.627 1372.48 336.867 1376.3 341.2C1380.11 345.36 1385.83 347.44 1393.46 347.44C1398.31 347.44 1402.47 346.66 1405.94 345.1L1407.24 360.44C1401.86 362.347 1396.32 363.3 1390.6 363.3ZM1555.59 225.24V362H1537.91V337.04C1533.06 345.36 1526.38 351.86 1517.89 356.54C1509.4 361.047 1499.69 363.3 1488.77 363.3C1470.92 363.3 1456.79 358.36 1446.39 348.48C1436.16 338.427 1431.05 323.78 1431.05 304.54V225.24H1449.51V302.72C1449.51 317.107 1453.06 328.027 1460.17 335.48C1467.28 342.933 1477.42 346.66 1490.59 346.66C1504.98 346.66 1516.33 342.327 1524.65 333.66C1532.97 324.82 1537.13 312.6 1537.13 297V225.24H1555.59ZM1694.39 362L1650.97 304.8L1607.29 362H1586.49L1640.57 291.8L1589.09 225.24H1609.89L1650.97 278.8L1692.05 225.24H1712.33L1660.85 291.8L1715.45 362H1694.39Z" fill="url(#paint0_linear_76_13)"></path>
<path d="M835.642 439H820.855V435.396H825.625V404.709H820.855V401.105H848.998V409.956H844.705V404.709H830.236V418.33H841.207V414.673H845.023V425.697H841.207V422.04H830.236V435.396H835.642V439ZM858.926 405.557C857.283 405.557 855.905 404.232 855.905 402.536C855.905 400.84 857.283 399.568 858.926 399.568C860.569 399.568 861.947 400.84 861.947 402.536C861.947 404.232 860.569 405.557 858.926 405.557ZM865.339 439H853.096V435.555H856.965V414.885H852.99V411.281H861.364V435.555H865.339V439ZM880.453 439H868.21V435.555H872.079V414.885H868.104V411.281H876.478V415.945C877.75 413.348 880.771 410.804 885.17 410.804C890.735 410.804 894.816 413.772 894.816 421.775V435.555H898.685V439H886.442V435.555H890.417V421.457C890.417 416.793 888.297 414.62 884.004 414.62C880.082 414.62 876.478 417.217 876.478 422.093V435.555H880.453V439ZM914.586 435.979C919.727 435.979 923.755 432.534 923.755 425.326V424.902C923.755 417.641 920.363 414.302 914.957 414.302C909.445 414.302 906.159 418.171 906.159 425.061V425.485C906.159 432.587 909.922 435.979 914.586 435.979ZM923.596 434.23C922.006 436.933 918.137 439.477 914.109 439.477C906.848 439.477 901.601 434.336 901.601 425.697V425.273C901.601 416.793 906.901 410.804 914.533 410.804C919.144 410.804 922.006 413.03 923.596 415.733V401.635H919.462V398.031H927.995V435.555H931.864V439H923.596V434.23ZM974.924 414.885H971.532L957.593 448.646H950.544V445.201H954.784L958.6 436.138L949.325 414.885H945.827V411.281H958.017V414.885H953.989L960.932 431.156L967.239 414.885H963.052V411.281H974.924V414.885ZM990.321 439.477C982.424 439.477 976.753 433.488 976.753 425.379V424.955C976.753 416.634 982.53 410.804 990.374 410.804C998.218 410.804 1004 416.581 1004 424.902V425.326C1004 433.7 998.218 439.477 990.321 439.477ZM990.374 435.82C995.939 435.82 999.437 431.633 999.437 425.379V425.008C999.437 418.595 995.886 414.461 990.374 414.461C984.809 414.461 981.311 418.595 981.311 424.955V425.379C981.311 431.686 984.756 435.82 990.374 435.82ZM1028.64 434.336C1027.37 436.933 1024.35 439.477 1020.06 439.477C1014.6 439.477 1010.52 436.509 1010.52 428.506V414.885H1006.65V411.281H1014.92V428.665C1014.92 433.488 1017.04 435.661 1021.22 435.661C1025.04 435.661 1028.64 433.064 1028.64 428.029V414.885H1024.78V411.281H1033.04V435.555H1036.91V439H1028.64V434.336ZM1052.29 439H1039.79V435.555H1043.66V414.885H1039.68V411.281H1048.05V416.581C1049.38 413.666 1052.19 410.857 1058.02 410.804V415.15C1051.98 415.097 1048.05 417.005 1048.05 423.789V435.555H1052.29V439ZM1416.25 418.224L1409.78 439H1405.22L1397.7 414.885H1394.46V411.281H1406.34V414.885H1402.36L1407.82 433.594L1414.55 411.281H1418.37L1424.67 433.594L1430.13 414.885H1425.79V411.281H1437.5V414.885H1434.27L1426.74 439H1422.02L1416.25 418.224ZM1445.86 405.557C1444.22 405.557 1442.84 404.232 1442.84 402.536C1442.84 400.84 1444.22 399.568 1445.86 399.568C1447.5 399.568 1448.88 400.84 1448.88 402.536C1448.88 404.232 1447.5 405.557 1445.86 405.557ZM1452.27 439H1440.03V435.555H1443.9V414.885H1439.92V411.281H1448.3V435.555H1452.27V439ZM1466.34 439.371C1460.77 439.371 1458.34 436.403 1458.34 432.057V414.991H1454.36V411.281H1458.34V404.974H1462.73V411.281H1469.89V414.991H1462.73V431.633C1462.73 434.283 1463.95 435.661 1466.71 435.661C1467.82 435.661 1469.04 435.449 1470.31 435.025V438.735C1469.09 439.106 1467.93 439.371 1466.34 439.371ZM1485.97 439H1473.72V435.555H1477.59V401.635H1473.62V398.031H1481.99V415.945C1483.26 413.348 1486.29 410.804 1490.68 410.804C1496.25 410.804 1500.33 413.772 1500.33 421.775V435.555H1504.2V439H1491.96V435.555H1495.93V421.457C1495.93 416.793 1493.81 414.62 1489.52 414.62C1485.6 414.62 1481.99 417.217 1481.99 422.093V435.555H1485.97V439ZM1528.5 419.92H1534.97C1540.37 419.92 1543.29 417.27 1543.29 412.394V412.182C1543.29 406.723 1540.11 404.709 1534.97 404.709H1528.5V419.92ZM1533.69 439H1519.12V435.396H1523.89V404.709H1519.12V401.105H1534.65C1541.91 401.105 1547.9 404.285 1547.9 412.182V412.394C1547.9 420.397 1541.86 423.524 1534.65 423.524H1528.5V435.396H1533.69V439ZM1573.29 434.336C1572.02 436.933 1569 439.477 1564.71 439.477C1559.25 439.477 1555.17 436.509 1555.17 428.506V414.885H1551.3V411.281H1559.56V428.665C1559.56 433.488 1561.68 435.661 1565.87 435.661C1569.69 435.661 1573.29 433.064 1573.29 428.029V414.885H1569.42V411.281H1577.69V435.555H1581.56V439H1573.29V434.336ZM1596.94 439H1584.43V435.555H1588.3V414.885H1584.33V411.281H1592.7V416.581C1594.03 413.666 1596.84 410.857 1602.67 410.804V415.15C1596.62 415.097 1592.7 417.005 1592.7 423.789V435.555H1596.94V439ZM1623.6 435.82C1629.12 435.82 1632.08 432.11 1632.08 425.379V424.955C1632.08 417.959 1628.22 414.461 1623.55 414.461C1618.41 414.461 1614.49 417.906 1614.49 424.955V425.379C1614.49 432.375 1618.25 435.82 1623.6 435.82ZM1618.99 448.646H1606.38V445.201H1610.25V414.885H1606.27V411.281H1614.65V416.157C1616.24 413.242 1620 410.804 1624.03 410.804C1631.29 410.804 1636.64 416.104 1636.64 424.743V425.167C1636.64 433.647 1631.66 439.477 1624.03 439.477C1619.47 439.477 1616.24 437.198 1614.65 434.336V445.201H1618.99V448.646ZM1654.22 439.477C1646.32 439.477 1640.65 433.488 1640.65 425.379V424.955C1640.65 416.634 1646.43 410.804 1654.27 410.804C1662.12 410.804 1667.89 416.581 1667.89 424.902V425.326C1667.89 433.7 1662.12 439.477 1654.22 439.477ZM1654.27 435.82C1659.84 435.82 1663.33 431.633 1663.33 425.379V425.008C1663.33 418.595 1659.78 414.461 1654.27 414.461C1648.71 414.461 1645.21 418.595 1645.21 424.955V425.379C1645.21 431.686 1648.65 435.82 1654.27 435.82ZM1682.78 439.477C1678.49 439.477 1676.32 437.304 1675.58 435.608V439H1671.87V429.778H1675.47C1676.11 433.011 1678.6 435.979 1682.89 435.979C1686.71 435.979 1688.56 434.389 1688.56 431.421C1688.56 428.506 1686.33 427.499 1682.04 426.704C1674.83 425.379 1672.4 422.835 1672.4 418.224C1672.4 413.56 1676.37 410.804 1681.14 410.804C1685.17 410.804 1687.13 412.235 1688.08 414.196V411.281H1691.79V419.284H1688.19C1687.55 416.21 1685.12 414.302 1681.56 414.302C1678.44 414.302 1676.48 415.521 1676.48 418.118C1676.48 420.556 1677.85 421.775 1682.94 422.782C1688.61 423.895 1692.75 425.326 1692.75 431.156C1692.75 436.085 1689.36 439.477 1682.78 439.477ZM1710.11 439.477C1702.27 439.477 1696.7 433.965 1696.7 425.432V425.008C1696.7 416.634 1702.06 410.804 1709.69 410.804C1716.1 410.804 1722.14 414.673 1722.14 424.584V426.015H1701.26C1701.47 432.322 1704.5 435.82 1710.17 435.82C1714.46 435.82 1716.95 434.23 1717.53 430.997H1721.93C1720.98 436.562 1716.37 439.477 1710.11 439.477ZM1701.42 422.464H1717.64C1717.22 416.74 1714.25 414.461 1709.69 414.461C1705.18 414.461 1702.16 417.535 1701.42 422.464Z" fill="#E2E8F0"></path>
<path d="M1087.63 435.396V439H1073.8V435.396H1078.57V404.709H1073.8V401.105H1084.55L1103.32 432.693V404.709H1098.33V401.105H1112.17V404.709H1107.4V439H1102.2L1082.65 406.405V435.396H1087.63ZM1128.31 439.477C1120.41 439.477 1114.74 433.488 1114.74 425.379V424.955C1114.74 416.634 1120.52 410.804 1128.36 410.804C1136.2 410.804 1141.98 416.581 1141.98 424.902V425.326C1141.98 433.7 1136.2 439.477 1128.31 439.477ZM1128.36 435.82C1133.93 435.82 1137.42 431.633 1137.42 425.379V425.008C1137.42 418.595 1133.87 414.461 1128.36 414.461C1122.8 414.461 1119.3 418.595 1119.3 424.955V425.379C1119.3 431.686 1122.74 435.82 1128.36 435.82ZM1158.19 439H1145.68V435.555H1149.55V414.885H1145.58V411.281H1153.95V416.581C1155.28 413.666 1158.09 410.857 1163.92 410.804V415.15C1157.87 415.097 1153.95 417.005 1153.95 423.789V435.555H1158.19V439ZM1179.08 439.371C1173.52 439.371 1171.08 436.403 1171.08 432.057V414.991H1167.1V411.281H1171.08V404.974H1175.48V411.281H1182.63V414.991H1175.48V431.633C1175.48 434.283 1176.7 435.661 1179.45 435.661C1180.57 435.661 1181.79 435.449 1183.06 435.025V438.735C1181.84 439.106 1180.67 439.371 1179.08 439.371ZM1198.71 439H1186.47V435.555H1190.34V401.635H1186.36V398.031H1194.74V415.945C1196.01 413.348 1199.03 410.804 1203.43 410.804C1208.99 410.804 1213.07 413.772 1213.07 421.775V435.555H1216.94V439H1204.7V435.555H1208.68V421.457C1208.68 416.793 1206.56 414.62 1202.26 414.62C1198.34 414.62 1194.74 417.217 1194.74 422.093V435.555H1198.71V439ZM1233.19 426.492V422.358H1244.53V426.492H1233.19ZM1276.26 439H1261.47V435.396H1266.24V404.709H1261.47V401.105H1289.61V409.956H1285.32V404.709H1270.85V418.33H1281.82V414.673H1285.64V425.697H1281.82V422.04H1270.85V435.396H1276.26V439ZM1306.16 439H1293.97V435.555H1297.84V401.635H1293.86V398.031H1302.29V435.555H1306.16V439ZM1322.66 439.477C1314.76 439.477 1309.09 433.488 1309.09 425.379V424.955C1309.09 416.634 1314.87 410.804 1322.71 410.804C1330.56 410.804 1336.33 416.581 1336.33 424.902V425.326C1336.33 433.7 1330.56 439.477 1322.66 439.477ZM1322.71 435.82C1328.28 435.82 1331.77 431.633 1331.77 425.379V425.008C1331.77 418.595 1328.22 414.461 1322.71 414.461C1317.15 414.461 1313.65 418.595 1313.65 424.955V425.379C1313.65 431.686 1317.09 435.82 1322.71 435.82ZM1359.62 418.224L1353.16 439H1348.6L1341.07 414.885H1337.84V411.281H1349.71V414.885H1345.74L1351.2 433.594L1357.93 411.281H1361.74L1368.05 433.594L1373.51 414.885H1369.16V411.281H1380.88V414.885H1377.64L1370.12 439H1365.4L1359.62 418.224Z" fill="url(#paint1_linear_76_13)"></path>
<defs>
<filter id="filter0_d_76_13" x="0" y="0" width="526" height="544" filterUnits="userSpaceOnUse" color-interpolation-filters="sRGB">
<feFlood flood-opacity="0" result="BackgroundImageFix"></feFlood>
<feColorMatrix in="SourceAlpha" type="matrix" values="0 0 0 0 0 0 0 0 0 0 0 0 0 0 0 0 0 0 127 0" result="hardAlpha"></feColorMatrix>
<feOffset dy="4"></feOffset>
<feGaussianBlur stdDeviation="2"></feGaussianBlur>
<feComposite in2="hardAlpha" operator="out"></feComposite>
<feColorMatrix type="matrix" values="0 0 0 0 0 0 0 0 0 0 0 0 0 0 0 0 0 0 0.25 0"></feColorMatrix>
<feBlend mode="normal" in2="BackgroundImageFix" result="effect1_dropShadow_76_13"></feBlend>
<feBlend mode="normal" in="SourceGraphic" in2="effect1_dropShadow_76_13" result="shape"></feBlend>
</filter>
<pattern id="pattern0_76_13" patternContentUnits="objectBoundingBox" width="1" height="1">
<use xlink:href="#image0_76_13" transform="scale(0.0010105 0.000976562)"></use>
</pattern>
<linearGradient id="paint0_linear_76_13" x1="1147" y1="110" x2="1147" y2="426" gradientUnits="userSpaceOnUse">
<stop stop-color="#D4956F"></stop>
<stop offset="0.25" stop-color="#A0523A"></stop>
<stop offset="0.5" stop-color="#C17C5E"></stop>
<stop offset="0.75" stop-color="#8B4430"></stop>
<stop offset="1" stop-color="#C6886E"></stop>
</linearGradient>
<linearGradient id="paint1_linear_76_13" x1="1272" y1="383" x2="1272" y2="452" gradientUnits="userSpaceOnUse">
<stop stop-color="#D4956F"></stop>
<stop offset="0.25" stop-color="#A0523A"></stop>
<stop offset="0.5" stop-color="#C17C5E"></stop>
<stop offset="0.75" stop-color="#8B4430"></stop>
<stop offset="1" stop-color="#C6886E"></stop>
</linearGradient>
<image id="image0_76_13" width="990" height="1024" preserveAspectRatio="none"></image>
</defs>
</svg>